<svg xmlns="http://www.w3.org/2000/svg" viewBox="0 0 30 820" data-asset-id="burette-acid-25ml-class-as" data-family-id="burette" data-capacity-ml="25" data-coordinate-unit="mm" data-master-authored="true" data-marking-kind="burette-ex" role="img" aria-labelledby="title desc" data-lod="thumbnail" data-lod-detail="identity" data-lod-visible-roles="body|rim|stopcock|tip" data-dimensions-mm="30 820 30" data-body-dimensions-mm="15 770 15" data-asset-version="2.0.0">
  <title id="title">25 mL acid burette, Class AS, master</title>
  <desc id="desc">Ex calibrated top-zero burette. Reading values increase downward on the marking printed around the tube.</desc>
  <defs>
    <linearGradient id="acid-glass" x1="0" y1="0" x2="1" y2="0"><stop stop-color="#b8d0d0" stop-opacity=".34"/><stop offset=".3" stop-color="#ffffff" stop-opacity=".2"/><stop offset=".58" stop-color="#d8e7e5" stop-opacity=".2"/><stop offset="1" stop-color="#6d9293" stop-opacity=".34"/></linearGradient>
    <linearGradient id="acid-ptfe" x1="0" y1="0" x2="1" y2="0"><stop stop-color="#777d77"/><stop offset=".32" stop-color="#f2f0e6"/><stop offset=".66" stop-color="#c7cac1"/><stop offset="1" stop-color="#686f69"/></linearGradient>
    <pattern id="acid-minor" width="5" height="1.44" patternUnits="userSpaceOnUse"><path d="M0 .72H3.2" stroke="#183b40" stroke-width=".24"/></pattern>
    <style>.edge{fill:none;stroke:#3f6265;stroke-linecap:round;stroke-linejoin:round}.mark{fill:none;stroke:#183b40;stroke-linecap:round}.label{fill:#153b40;font:2.5px Arial,sans-serif}.shine{fill:none;stroke:#fff;stroke-linecap:round}</style>
  </defs>

  <g data-layer="body" data-part="burette.body"><path d="M8 6V744Q8 748 12 748H18Q22 748 22 744V6Z" fill="url(#acid-glass)" stroke="#45696d" stroke-width=".48" data-profile-boundary="burette-tube"/><path d="M15 7V744" stroke="#f7ffff" stroke-width="2.2" opacity=".36"/><path d="M16 24V744" stroke="#ffffff" stroke-width="1.1" opacity=".5"/></g>
  <g data-layer="rim" data-part="burette.rim"><ellipse cx="15" cy="5" rx="8" ry="2.3" fill="#f4ffff" fill-opacity=".28" stroke="#45696d" stroke-width=".5"/><ellipse cx="15" cy="5" rx="6.5" ry="1" fill="#fff" fill-opacity=".2" stroke="#8ba6a7" stroke-width=".3"/></g>



  <g data-layer="stopcock" data-part="burette.ptfe-stopcock" data-flow-node="stopcock"><path d="M4 748H26Q28 748 28 751V768Q28 771 25 771H5Q2 771 2 768V751Q2 748 4 748Z" fill="url(#acid-ptfe)" stroke="#59645e" stroke-width=".5"/><path d="M15 754L24 750" class="edge" stroke="#4d5750" stroke-width="1.2"/><rect x="22" y="747" width="5" height="3" rx=".7" fill="#e4e3da" stroke="#657067" stroke-width=".3"/></g>

  <g data-layer="tip" data-part="burette.tip" data-flow-node="outlet-tip"><path d="M12 770H18V802L16.5 816Q15 820 13.5 816L12 802Z" fill="url(#acid-glass)" stroke="#45696d" stroke-width=".5"/><path d="M15 773V815" class="edge" stroke-width=".45"/></g>

</svg>
