<svg xmlns="http://www.w3.org/2000/svg" viewBox="0 0 500 820" data-review-mode="visual-only" data-review-source="embedded-manual-master" data-coordinate-unit="review-px" role="img" aria-labelledby="normalized-title normalized-desc"><title id="normalized-title">Gold Master normalized-shape comparison</title><desc id="normalized-desc">Visual-only comparison with changed geometry parameters normalized for shape comparison; it must not supply quantitative readings.</desc><rect width="500" height="820" fill="#26332e"/><text x="20" y="25" fill="#eef4f1" font-family="Arial,sans-serif" font-size="13" font-weight="700">CHEMREALM GOLD MASTER · NORMALIZED SHAPE</text><g data-review-family="burette"><svg x="30" y="100" width="8.78" height="240" viewBox="0 0 30 820" preserveAspectRatio="none" data-source-asset-id="burette-acid-25ml-class-as" data-source-lod="master" data-mm-to-px="0.2926829268292683" data-review-mode="visual-only">
  <title id="title">25 mL acid burette, Class AS, master</title>
  <desc id="desc">Ex calibrated top-zero burette. Reading values increase downward on the marking printed around the tube.</desc>
  <defs>
    <linearGradient id="acid-glass" x1="0" y1="0" x2="1" y2="0"><stop stop-color="#b8d0d0" stop-opacity=".34"/><stop offset=".3" stop-color="#ffffff" stop-opacity=".2"/><stop offset=".58" stop-color="#d8e7e5" stop-opacity=".2"/><stop offset="1" stop-color="#6d9293" stop-opacity=".34"/></linearGradient>
    <linearGradient id="acid-ptfe" x1="0" y1="0" x2="1" y2="0"><stop stop-color="#777d77"/><stop offset=".32" stop-color="#f2f0e6"/><stop offset=".66" stop-color="#c7cac1"/><stop offset="1" stop-color="#686f69"/></linearGradient>
    <pattern id="acid-minor" width="5" height="1.44" patternUnits="userSpaceOnUse"><path d="M0 .72H3.2" stroke="#183b40" stroke-width=".24"/></pattern>
    <style>.edge{fill:none;stroke:#3f6265;stroke-linecap:round;stroke-linejoin:round}.mark{fill:none;stroke:#183b40;stroke-linecap:round}.label{fill:#153b40;font:2.5px Arial,sans-serif}.shine{fill:none;stroke:#fff;stroke-linecap:round}</style>
  </defs>
  <g data-layer="glass-back" data-part="burette.body"><path d="M8 6V744Q8 748 12 748H18Q22 748 22 744V6" fill="url(#acid-glass)" stroke="#4c6f72" stroke-width=".5"/></g>
  <g data-layer="body" data-part="burette.body"><path d="M8 6V744Q8 748 12 748H18Q22 748 22 744V6Z" fill="url(#acid-glass)" stroke="#45696d" stroke-width=".48" data-profile-boundary="burette-tube"/><path d="M15 7V744" stroke="#f7ffff" stroke-width="2.2" opacity=".36"/><path d="M16 24V744" stroke="#ffffff" stroke-width="1.1" opacity=".5"/></g>
  <g data-layer="rim" data-part="burette.rim"><ellipse cx="15" cy="5" rx="8" ry="2.3" fill="#f4ffff" fill-opacity=".28" stroke="#45696d" stroke-width=".5"/><ellipse cx="15" cy="5" rx="6.5" ry="1" fill="#fff" fill-opacity=".2" stroke="#8ba6a7" stroke-width=".3"/></g>
  <g data-layer="scale" data-part="burette.scale-on-tube" data-marking-kind="burette-ex" data-marking-direction="increases-downward" data-marking-reference="top-zero" data-marking-surface="tube-wrap" data-marking-range-ml="0-25" data-marking-interval-ml="0.05" data-calibration="Ex-20C-AS"><rect x="17" y="24" width="4.5" height="720" fill="url(#acid-minor)" opacity=".95"/><path d="M17 24V744" class="mark" stroke-width=".22" opacity=".5"/>
    <g data-marking-value-ml="0"><path d="M16.5 24H22" class="mark" stroke-width=".72"/></g><g data-marking-value-ml="1"><path d="M16.5 52.8H22" class="mark" stroke-width=".72"/></g><g data-marking-value-ml="2"><path d="M16.5 81.6H22" class="mark" stroke-width=".72"/></g><g data-marking-value-ml="3"><path d="M16.5 110.4H22" class="mark" stroke-width=".72"/></g><g data-marking-value-ml="4"><path d="M16.5 139.2H22" class="mark" stroke-width=".72"/></g><g data-marking-value-ml="5"><path d="M16.5 168H22" class="mark" stroke-width=".72"/></g><g data-marking-value-ml="6"><path d="M16.5 196.8H22" class="mark" stroke-width=".72"/></g><g data-marking-value-ml="7"><path d="M16.5 225.6H22" class="mark" stroke-width=".72"/></g><g data-marking-value-ml="8"><path d="M16.5 254.4H22" class="mark" stroke-width=".72"/></g><g data-marking-value-ml="9"><path d="M16.5 283.2H22" class="mark" stroke-width=".72"/></g><g data-marking-value-ml="10"><path d="M16.5 312H22" class="mark" stroke-width=".72"/></g><g data-marking-value-ml="11"><path d="M16.5 340.8H22" class="mark" stroke-width=".72"/></g><g data-marking-value-ml="12"><path d="M16.5 369.6H22" class="mark" stroke-width=".72"/></g><g data-marking-value-ml="13"><path d="M16.5 398.4H22" class="mark" stroke-width=".72"/></g><g data-marking-value-ml="14"><path d="M16.5 427.2H22" class="mark" stroke-width=".72"/></g><g data-marking-value-ml="15"><path d="M16.5 456H22" class="mark" stroke-width=".72"/></g><g data-marking-value-ml="16"><path d="M16.5 484.8H22" class="mark" stroke-width=".72"/></g><g data-marking-value-ml="17"><path d="M16.5 513.6H22" class="mark" stroke-width=".72"/></g><g data-marking-value-ml="18"><path d="M16.5 542.4H22" class="mark" stroke-width=".72"/></g><g data-marking-value-ml="19"><path d="M16.5 571.2H22" class="mark" stroke-width=".72"/></g><g data-marking-value-ml="20"><path d="M16.5 600H22" class="mark" stroke-width=".72"/></g><g data-marking-value-ml="21"><path d="M16.5 628.8H22" class="mark" stroke-width=".72"/></g><g data-marking-value-ml="22"><path d="M16.5 657.6H22" class="mark" stroke-width=".72"/></g><g data-marking-value-ml="23"><path d="M16.5 686.4H22" class="mark" stroke-width=".72"/></g><g data-marking-value-ml="24"><path d="M16.5 715.2H22" class="mark" stroke-width=".72"/></g><g data-marking-value-ml="25"><path d="M16.5 744H22" class="mark" stroke-width=".72"/></g>
  </g>
  <g data-layer="labels" data-part="burette.scale-labels"><text x="23.5" y="25" class="label">0</text><text x="23.5" y="169" class="label">5</text><text x="23.5" y="313" class="label">10</text><text x="23.5" y="457" class="label">15</text><text x="23.5" y="601" class="label">20</text><text x="23.5" y="745" class="label">25</text><text x="23.5" y="753" class="label" font-size="2">mL · Ex · 20°C · AS</text></g>
  <g data-layer="glass-front" data-part="burette.body"><path d="M10 12V738" class="shine" stroke-width=".8" opacity=".56"/><path d="M20 15V735" class="shine" stroke-width=".35" opacity=".3"/></g>
  <g data-layer="stopcock" data-part="burette.ptfe-stopcock" data-flow-node="stopcock"><path d="M4 748H26Q28 748 28 751V768Q28 771 25 771H5Q2 771 2 768V751Q2 748 4 748Z" fill="url(#acid-ptfe)" stroke="#59645e" stroke-width=".5"/><path d="M15 754L24 750" class="edge" stroke="#4d5750" stroke-width="1.2"/><rect x="22" y="747" width="5" height="3" rx=".7" fill="#e4e3da" stroke="#657067" stroke-width=".3"/></g>
  <g data-layer="stopcock-key" data-part="burette.rotary-key"><path d="M15 757L24 753" class="edge" stroke="#3d4843" stroke-width="1.1"/><rect x="23" y="751" width="5" height="3" rx=".7" fill="#d9dad2" stroke="#5a665d" stroke-width=".3"/></g>
  <g data-layer="tip" data-part="burette.tip" data-flow-node="outlet-tip"><path d="M12 770H18V802L16.5 816Q15 820 13.5 816L12 802Z" fill="url(#acid-glass)" stroke="#45696d" stroke-width=".5"/><path d="M15 773V815" class="edge" stroke-width=".45"/></g>
  <g data-layer="highlight"><path d="M9 9V740" class="shine" stroke-width=".5" opacity=".6"/></g>
</svg><text x="30" y="365" fill="#eef4f1" font-family="Arial,sans-serif" font-size="9">burette-acid-25ml-class-as</text></g><g data-review-family="burette"><svg x="150" y="100" width="9.6" height="240" viewBox="0 0 36 900" preserveAspectRatio="none" data-source-asset-id="burette-alkali-50ml-class-b" data-source-lod="master" data-mm-to-px="0.26666666666666666" data-review-mode="visual-only">
  <title id="title">50 mL alkali burette master</title>
  <desc id="desc">Distinct alkali burette family with an approximate top-zero downward reading scale, rubber delivery tube and glass bead.</desc>
  <defs>
    <linearGradient id="alkali-glass" x1="0" y1="0" x2="1" y2="0"><stop stop-color="#b5cecf" stop-opacity=".35"/><stop offset=".28" stop-color="#ffffff" stop-opacity=".19"/><stop offset=".58" stop-color="#d6e5e4" stop-opacity=".2"/><stop offset="1" stop-color="#6f9495" stop-opacity=".35"/></linearGradient>
    <linearGradient id="alkali-rubber" x1="0" y1="0" x2="1" y2="0"><stop stop-color="#202825"/><stop offset=".45" stop-color="#6e7970"/><stop offset="1" stop-color="#252e29"/></linearGradient>
    <pattern id="alkali-minor" width="4" height="1.44" patternUnits="userSpaceOnUse"><path d="M0 .72H3" stroke="#183b40" stroke-width=".22"/></pattern>
    <style>.edge{fill:none;stroke:#3e6265;stroke-linecap:round;stroke-linejoin:round}.mark{fill:none;stroke:#183b40;stroke-linecap:round}.label{fill:#153b40;font:2.5px Arial,sans-serif}.shine{fill:none;stroke:#fff;stroke-linecap:round}</style>
  </defs>
  <g data-layer="glass-back" data-part="burette.body"><path d="M9 6V814Q9 818 13 818H23Q27 818 27 814V6" fill="url(#alkali-glass)" stroke="#4c6f72" stroke-width=".5"/></g>
  <g data-layer="body" data-part="burette.body"><path d="M9 6V814Q9 818 13 818H23Q27 818 27 814V6Z" fill="url(#alkali-glass)" stroke="#45696d" stroke-width=".48" data-profile-boundary="burette-tube"/><path d="M18 8V814" stroke="#f7ffff" stroke-width="2.3" opacity=".35"/><path d="M19 24V814" stroke="#ffffff" stroke-width="1" opacity=".46"/></g>
  <g data-layer="rim" data-part="burette.rim"><ellipse cx="18" cy="5" rx="10" ry="2.4" fill="#f4ffff" fill-opacity=".28" stroke="#45696d" stroke-width=".5"/><ellipse cx="18" cy="5" rx="8" ry="1" fill="#fff" fill-opacity=".2" stroke="#8ba6a7" stroke-width=".3"/></g>
  <g data-layer="scale" data-part="burette.scale-on-tube" data-marking-kind="burette-approximate" data-marking-direction="increases-downward" data-marking-reference="top-zero" data-marking-surface="tube-wrap" data-marking-range-ml="0-50" data-marking-interval-ml="0.1" data-calibration="approximate"><rect x="21" y="24" width="4.5" height="790" fill="url(#alkali-minor)" opacity=".95"/><path d="M21 24V814" class="mark" stroke-width=".22" opacity=".5"/><path d="M20.5 24H27M20.5 103H27M20.5 182H27M20.5 261H27M20.5 340H27M20.5 419H27M20.5 498H27M20.5 577H27M20.5 656H27M20.5 735H27M20.5 814H27" class="mark" stroke-width=".72"/>
    <g data-marking-value-ml="0"/><g data-marking-value-ml="5"/><g data-marking-value-ml="10"/><g data-marking-value-ml="15"/><g data-marking-value-ml="20"/><g data-marking-value-ml="25"/><g data-marking-value-ml="30"/><g data-marking-value-ml="35"/><g data-marking-value-ml="40"/><g data-marking-value-ml="45"/><g data-marking-value-ml="50"/>
  </g>
  <g data-layer="labels" data-part="burette.scale-labels"><text x="28.5" y="25" class="label">0</text><text x="28.5" y="104" class="label">5</text><text x="28.5" y="183" class="label">10</text><text x="28.5" y="262" class="label">15</text><text x="28.5" y="341" class="label">20</text><text x="28.5" y="420" class="label">25</text><text x="28.5" y="499" class="label">30</text><text x="28.5" y="578" class="label">35</text><text x="28.5" y="657" class="label">40</text><text x="28.5" y="736" class="label">45</text><text x="28.5" y="815" class="label">50</text><text x="21" y="824" class="label" font-size="2">approx. mL</text></g>
  <g data-layer="glass-front" data-part="burette.body"><path d="M11 12V808" class="shine" stroke-width=".8" opacity=".56"/><path d="M25 15V805" class="shine" stroke-width=".35" opacity=".3"/></g>
  <g data-layer="lower-connector" data-part="burette.lower-connector" data-flow-node="lower-connector"><path d="M13 816H23V838H13Z" fill="url(#alkali-glass)" stroke="#45696d" stroke-width=".5"/></g>
  <g data-layer="rubber-tube" data-part="burette.rubber-delivery" data-flow-node="rubber-tube"><path d="M18 836C16 850 16 858 18 869S20 888 18 893" fill="none" stroke="url(#alkali-rubber)" stroke-width="5" stroke-linecap="round"/></g>
  <g data-layer="glass-bead" data-part="burette.glass-bead" data-flow-node="glass-bead"><ellipse cx="18" cy="862" rx="5" ry="7" fill="#d4dfdb" fill-opacity=".9" stroke="#566b65" stroke-width=".55"/><path d="M15 858Q18 855 21 858" class="shine" stroke-width=".55" opacity=".8"/></g>
  <g data-layer="pinch-region" data-part="burette.pinch-region" data-flow-node="pinch-region"><path d="M11 870H25" stroke="#4d5b53" stroke-width="2.5" stroke-linecap="round"/><path d="M13 874H23" stroke="#a0aaa1" stroke-width=".8" stroke-linecap="round" opacity=".7"/></g>
  <g data-layer="tip" data-part="burette.tip" data-flow-node="outlet-tip"><path d="M15 888H21V895L20 898Q18 899 16 898L15 895Z" fill="url(#alkali-glass)" stroke="#45696d" stroke-width=".5"/></g>
  <g data-layer="highlight"><path d="M10 9V810" class="shine" stroke-width=".5" opacity=".6"/></g>
</svg><text x="150" y="365" fill="#eef4f1" font-family="Arial,sans-serif" font-size="9">burette-alkali-50ml-class-b</text></g><g data-review-family="beaker"><svg x="270" y="100" width="100" height="111.765" viewBox="0 0 85 95" preserveAspectRatio="none" data-source-asset-id="beaker-250ml" data-source-lod="master" data-mm-to-px="1.1764705882352942" data-review-mode="visual-only">
  <title id="title">250 mL Griffin low-form beaker master</title>
  <desc id="desc">Source-backed approximate-contained scale from 25 mL to 200 mL, increasing upward on the vessel wall.</desc>
  <defs>
    <linearGradient id="beaker-glass" x1="0" y1="0" x2="1" y2="0"><stop offset="0" stop-color="#b7d0d2" stop-opacity=".38"/><stop offset=".16" stop-color="#f7ffff" stop-opacity=".2"/><stop offset=".52" stop-color="#dbe9e8" stop-opacity=".23"/><stop offset="1" stop-color="#73989c" stop-opacity=".34"/></linearGradient>
    <linearGradient id="beaker-rim" x1="0" y1="0" x2="0" y2="1"><stop stop-color="#ffffff" stop-opacity=".72"/><stop offset="1" stop-color="#afcacc" stop-opacity=".3"/></linearGradient>
    <style>.edge{fill:none;stroke:#3d6267;stroke-linecap:round;stroke-linejoin:round}.mark{fill:none;stroke:#193d43;stroke-linecap:round}.label{fill:#173d43;font:2.8px Arial,sans-serif}.shine{fill:none;stroke:#fff;stroke-linecap:round}</style>
  </defs>
  <g data-layer="glass-back" data-part="vessel.body"><path d="M8 8V86Q8 91 13 92H72Q77 91 77 86V8" fill="url(#beaker-glass)" stroke="#5c7b80" stroke-width=".65"/></g>
  <g data-layer="body" data-part="vessel.body"><path d="M8 8V86Q8 91 13 92H72Q77 91 77 86V8Z" fill="url(#beaker-glass)" stroke="#45696e" stroke-width=".45" data-profile-boundary="griffin-straight-wall"/><path d="M11 14V84Q11 88 15 89H70" class="edge" stroke-width=".35" opacity=".7"/></g>
  <g data-layer="spout" data-part="vessel.spout"><path d="M73 8C77 7 79 5 82 5C83.5 5 84.5 6 85 7.2C82.2 8.3 79.5 10 76 12L73 13Z" fill="url(#beaker-glass)" stroke="#45696e" stroke-width=".48" data-spout-root="rim-continuity" data-spout-tip-x="85"/><path d="M76 9C79 7.8 81 6.6 83.8 6.5" class="shine" stroke-width=".38" opacity=".75"/></g>
  <g data-layer="rim" data-part="vessel.rim"><ellipse cx="42.5" cy="7.5" rx="34.8" ry="3.2" fill="url(#beaker-rim)" stroke="#45696e" stroke-width=".6"/><ellipse cx="42.5" cy="7.5" rx="31.8" ry="1.9" fill="#f5ffff" fill-opacity=".22" stroke="#78969a" stroke-width=".3"/><path d="M8 7.5H73" class="edge" stroke-width=".55"/></g>
  <g data-layer="scale" data-part="vessel.scale" data-marking-kind="approximate-contained" data-marking-direction="increases-upward" data-marking-range-ml="25-200" data-marking-interval-ml="25">
    <path d="M64 22H73M64 30H73M64 38H73M64 46H73M64 54H73M64 62H73M64 70H73M64 78H73" class="mark" stroke-width=".55"/>
    <path d="M69 22V78" class="mark" stroke-width=".22" opacity=".65"/>
    <g data-marking-value-ml="200"><path d="M64 22H73" class="mark" stroke-width=".7"/></g>
    <g data-marking-value-ml="175"><path d="M64 30H73" class="mark" stroke-width=".7"/></g>
    <g data-marking-value-ml="150"><path d="M64 38H73" class="mark" stroke-width=".7"/></g>
    <g data-marking-value-ml="125"><path d="M64 46H73" class="mark" stroke-width=".7"/></g>
    <g data-marking-value-ml="100"><path d="M64 54H73" class="mark" stroke-width=".7"/></g>
    <g data-marking-value-ml="75"><path d="M64 62H73" class="mark" stroke-width=".7"/></g>
    <g data-marking-value-ml="50"><path d="M64 70H73" class="mark" stroke-width=".7"/></g>
    <g data-marking-value-ml="25"><path d="M64 78H73" class="mark" stroke-width=".7"/></g>
  </g>
  <g data-layer="labels" data-part="vessel.scale-labels"><text x="74.5" y="23" class="label">200</text><text x="74.5" y="31" class="label">175</text><text x="74.5" y="39" class="label">150</text><text x="74.5" y="47" class="label">125</text><text x="74.5" y="55" class="label">100</text><text x="74.5" y="63" class="label">75</text><text x="74.5" y="71" class="label">50</text><text x="74.5" y="79" class="label">25</text><text x="64" y="19" class="label" font-size="2.1">approx. mL</text></g>
  <g data-layer="glass-front" data-part="vessel.body"><path d="M16 13V84" class="shine" stroke-width="1.2" opacity=".32"/><path d="M70 16V83" class="shine" stroke-width=".45" opacity=".3"/></g>
  <g data-layer="highlight"><path d="M12 10H56" class="shine" stroke-width=".4" opacity=".7"/><path d="M15 91H70" class="shine" stroke-width=".55" opacity=".45"/></g>
</svg><text x="270" y="365" fill="#eef4f1" font-family="Arial,sans-serif" font-size="9">beaker-250ml</text></g><g data-review-family="conical-flask"><svg x="390" y="100" width="100" height="170.588" viewBox="0 0 85 145" preserveAspectRatio="none" data-source-asset-id="conical-flask-250ml" data-source-lod="master" data-mm-to-px="1.1764705882352942" data-review-mode="visual-only">
  <title id="title">250 mL Erlenmeyer flask master</title>
  <desc id="desc">Source-backed conical flask silhouette with a cylindrical neck and no invented measurement scale.</desc>
  <defs>
    <linearGradient id="flask-glass" x1="0" y1="0" x2="1" y2="0"><stop stop-color="#a9c9cb" stop-opacity=".36"/><stop offset=".2" stop-color="#fbffff" stop-opacity=".17"/><stop offset=".53" stop-color="#d7e8e7" stop-opacity=".2"/><stop offset="1" stop-color="#709296" stop-opacity=".35"/></linearGradient>
    <style>.edge{fill:none;stroke:#3d6267;stroke-linecap:round;stroke-linejoin:round}.shine{fill:none;stroke:#fff;stroke-linecap:round}</style>
  </defs>
  <g data-layer="glass-back" data-part="vessel.body"><path d="M31 46C29 53 18 60 12 70C7 78 5 93 5 126Q5 138 17 141H68Q80 138 80 126C80 93 78 78 73 70C67 60 56 53 54 46Z" fill="url(#flask-glass)" stroke="#5b7b80" stroke-width=".55"/></g>
  <g data-layer="body" data-part="vessel.body"><path d="M31 46C29 53 18 60 12 70C7 78 5 93 5 126Q5 138 17 141H68Q80 138 80 126C80 93 78 78 73 70C67 60 56 53 54 46Z" fill="url(#flask-glass)" stroke="#45696e" stroke-width=".52" data-profile-boundary="erlenmeyer-conical-body" data-landmark-max-diameter-mm="85"/><path d="M8 123Q8 137 18 138H67Q77 137 77 123" class="edge" stroke-width=".55" opacity=".85"/><path d="M15 70C24 61 31 55 32 47M70 70C61 61 54 55 53 47" class="edge" stroke-width=".4" opacity=".55"/></g>
  <g data-layer="shoulder" data-part="vessel.shoulder"><path d="M31 46C29 53 18 60 12 70M54 46C56 53 67 60 73 70" class="edge" stroke-width=".7" data-landmark-shoulder-height-mm="52"/></g>
  <g data-layer="neck" data-part="vessel.neck"><path d="M31 3V46M54 3V46" class="edge" stroke-width=".7" data-landmark-neck-length-mm="48"/><path d="M34 5V43M51 5V43" class="shine" stroke-width=".75" opacity=".34"/></g>
  <g data-layer="rim" data-part="vessel.rim"><ellipse cx="42.5" cy="3" rx="14" ry="2.2" fill="#f5ffff" fill-opacity=".24" stroke="#45696e" stroke-width=".58"/><ellipse cx="42.5" cy="3" rx="11.8" ry="1.1" fill="#fff" fill-opacity=".18" stroke="#8ca7aa" stroke-width=".3"/></g>
  <g data-layer="glass-front" data-part="vessel.body"><path d="M18 73C13 86 13 113 14 128" class="shine" stroke-width="1.1" opacity=".32"/><path d="M68 77C72 94 71 116 70 129" class="shine" stroke-width=".38" opacity=".27"/></g>
  <g data-layer="highlight"><path d="M35 7V40" class="shine" stroke-width=".5" opacity=".72"/><path d="M17 138H68" class="shine" stroke-width=".55" opacity=".45"/></g>
</svg><text x="390" y="365" fill="#eef4f1" font-family="Arial,sans-serif" font-size="9">conical-flask-250ml</text></g><text x="20" y="805" fill="#b9c9c0" font-family="Arial,sans-serif" font-size="8">Not measurement evidence. Use the physical-scale sheet for common millimetre scale.</text></svg>
